<?xml version="1.0" standalone="no"?>
<!DOCTYPE svg PUBLIC "-//W3C//DTD SVG 20010904//EN"
 "http://www.w3.org/TR/2001/REC-SVG-20010904/DTD/svg10.dtd">
<svg version="1.0" xmlns="http://www.w3.org/2000/svg"
 width="2917.000000pt" height="2917.000000pt" viewBox="0 0 2917.000000 2917.000000"
 preserveAspectRatio="xMidYMid meet">
<metadata>
Created by potrace 1.11, written by Peter Selinger 2001-2013
</metadata>
<g transform="translate(0.000000,2917.000000) scale(0.100000,-0.100000)"
fill="#000000" stroke="none">
<path d="M19273 23135 c-106 -49 -173 -147 -344 -502 -110 -228 -478 -964
-557 -1114 -27 -52 -84 -161 -127 -244 -43 -82 -97 -186 -120 -230 -23 -44
-70 -134 -105 -200 -34 -66 -77 -147 -95 -180 -18 -33 -54 -100 -80 -150 -26
-49 -56 -103 -65 -120 -10 -16 -48 -88 -85 -160 -37 -71 -71 -134 -75 -140 -4
-5 -29 -50 -55 -100 -47 -89 -83 -155 -149 -277 -18 -35 -57 -108 -86 -163
-29 -55 -81 -152 -115 -215 -34 -63 -90 -169 -125 -235 -35 -66 -71 -133 -80
-150 -10 -16 -41 -75 -70 -130 -29 -55 -60 -113 -70 -130 -17 -29 -55 -101
-155 -290 -26 -49 -65 -124 -88 -165 -22 -41 -60 -113 -85 -160 -42 -80 -67
-127 -141 -264 -18 -32 -44 -81 -58 -107 -14 -27 -28 -49 -32 -49 -6 0 -27 35
-109 185 -19 33 -47 81 -63 108 -16 26 -29 49 -29 51 0 4 -174 313 -190 336
-6 8 -13 22 -17 30 -4 8 -26 48 -50 88 -24 41 -43 75 -43 77 0 2 -14 28 -31
57 -18 29 -51 87 -74 128 -23 41 -100 179 -172 305 -71 127 -141 250 -155 275
-14 25 -62 110 -108 190 -45 80 -94 165 -108 190 -13 25 -39 70 -56 100 -18
30 -35 62 -39 70 -4 8 -15 29 -25 45 -10 17 -34 57 -52 90 -18 33 -97 173
-175 310 -78 138 -157 277 -175 310 -18 33 -53 93 -77 133 -24 41 -43 75 -43
76 0 2 -42 77 -93 167 -51 90 -96 171 -100 179 -4 8 -17 31 -28 50 -22 35
-131 227 -177 310 -21 37 -93 164 -210 370 -10 19 -54 95 -96 169 -42 73 -76
135 -76 138 0 2 -11 20 -23 41 -13 20 -39 64 -57 97 -18 33 -45 80 -58 105
-14 25 -78 137 -142 250 -64 113 -134 235 -154 273 -28 49 -43 67 -59 68 -89
3 -4698 1 -4702 -3 -2 -2 83 -154 190 -338 107 -184 195 -335 195 -337 0 -2
11 -20 24 -41 19 -31 92 -155 156 -267 46 -80 395 -680 535 -920 86 -148 169
-290 183 -315 13 -25 55 -97 92 -160 37 -63 77 -131 88 -150 10 -19 83 -145
162 -280 78 -135 151 -260 161 -277 10 -18 82 -142 160 -275 78 -134 149 -256
159 -273 69 -122 201 -348 223 -382 15 -24 27 -45 27 -47 0 -3 20 -38 43 -78
58 -97 224 -381 255 -438 13 -25 28 -49 32 -55 4 -5 17 -26 27 -45 11 -19 94
-163 185 -320 91 -157 174 -299 184 -317 11 -18 96 -164 189 -324 94 -161 179
-309 190 -328 33 -59 95 -165 105 -181 5 -8 38 -64 73 -125 35 -60 106 -182
157 -270 52 -88 101 -173 109 -188 9 -16 21 -36 26 -45 6 -9 36 -62 68 -117
32 -55 62 -107 67 -115 28 -43 380 -653 380 -657 0 -2 15 -27 33 -56 18 -29
76 -125 128 -215 51 -90 106 -184 121 -210 15 -26 41 -72 58 -102 17 -30 39
-68 49 -85 16 -26 157 -268 213 -365 11 -19 101 -174 200 -345 100 -170 189
-323 198 -340 10 -16 41 -70 70 -120 29 -49 60 -104 70 -120 37 -66 162 -280
164 -282 2 -2 96 164 222 392 12 22 75 137 141 255 66 118 135 242 153 275
134 243 186 336 208 375 15 25 27 47 27 50 0 3 8 16 16 30 13 19 258 460 404
725 98 180 148 268 236 427 56 101 116 208 132 238 78 142 208 377 217 390 6
8 13 22 17 30 3 8 34 65 68 125 34 61 76 135 92 165 38 68 311 559 345 620 44
78 233 422 273 495 21 39 41 75 45 80 4 6 24 42 45 80 71 131 98 180 105 190
4 6 27 46 50 90 24 44 55 101 69 126 14 25 134 240 266 478 132 238 249 449
261 469 11 20 42 78 69 127 26 50 56 102 67 117 10 14 18 29 18 33 0 3 17 37
39 73 21 37 53 94 71 127 18 33 44 80 58 105 14 25 57 104 97 175 40 72 87
157 105 190 18 33 63 114 100 180 64 116 81 145 147 265 76 137 182 328 200
360 11 19 35 62 53 95 66 120 89 161 124 223 20 35 36 65 36 67 0 2 23 42 50
90 28 48 50 89 50 91 0 2 10 21 23 42 13 20 42 71 64 112 22 41 52 95 66 120
13 25 79 142 144 260 66 118 154 271 195 340 227 380 256 515 140 639 -93 98
-219 128 -329 76z"/>
<path d="M10507 15213 c-116 -386 -160 -534 -234 -783 -46 -157 -100 -339
-119 -405 -20 -66 -54 -181 -76 -255 -67 -224 -314 -1067 -323 -1100 -2 -8
-47 -163 -99 -345 -53 -181 -103 -355 -112 -385 -8 -30 -20 -66 -24 -80 -5
-14 -52 -176 -105 -360 -53 -184 -115 -396 -137 -470 -22 -74 -41 -142 -43
-150 -4 -19 -137 -476 -170 -585 -22 -72 -249 -850 -273 -935 -6 -19 -24 -80
-40 -135 -16 -55 -32 -109 -35 -120 -3 -11 -31 -105 -62 -210 -57 -191 -113
-384 -200 -680 -25 -88 -60 -205 -76 -260 -17 -55 -32 -107 -34 -115 -2 -8
-16 -55 -30 -105 -15 -49 -29 -97 -30 -105 -2 -8 -54 -186 -116 -395 -61 -209
-113 -387 -114 -395 -2 -8 -20 -69 -40 -135 -20 -66 -38 -128 -40 -137 -2 -9
-17 -61 -34 -115 -66 -213 -129 -433 -138 -482 -2 -14 -6 -28 -8 -32 -3 -4 -7
-24 -11 -45 -3 -22 -6 -41 -7 -44 -4 -18 18 -89 34 -112 11 -15 45 -39 77 -54
52 -26 67 -28 177 -28 127 0 171 9 237 51 53 33 84 84 128 214 32 97 122 432
137 508 2 14 6 28 8 31 2 4 7 22 10 41 3 19 17 81 30 139 13 58 26 116 29 130
3 14 17 75 31 135 35 151 34 148 39 170 2 11 15 67 29 125 14 58 28 116 31
130 3 14 17 75 31 135 30 127 27 113 55 230 12 50 24 97 25 105 2 8 22 92 45
185 23 94 44 179 46 190 2 11 53 218 114 460 61 242 117 465 125 495 16 66 98
382 120 460 8 30 30 111 49 180 122 452 150 550 157 550 5 0 23 -21 41 -47 18
-27 36 -52 41 -58 4 -5 80 -111 169 -235 89 -124 200 -279 248 -345 48 -66
140 -194 205 -285 65 -91 132 -184 149 -207 17 -23 66 -91 108 -150 100 -140
403 -562 422 -588 8 -11 87 -121 176 -245 89 -124 175 -243 190 -265 16 -22
100 -139 187 -260 86 -121 161 -224 166 -230 4 -5 64 -89 133 -185 69 -96 134
-186 144 -200 10 -14 47 -65 82 -115 115 -161 380 -530 388 -538 7 -8 210 284
210 303 0 5 3 10 8 12 6 2 322 472 357 530 5 9 35 54 66 100 97 144 1074 1612
1084 1630 6 9 90 136 188 282 97 146 257 386 355 532 97 146 182 273 187 282
76 124 329 492 334 485 4 -4 13 -26 19 -48 13 -44 151 -551 156 -575 2 -8 10
-35 17 -60 7 -25 13 -49 15 -55 1 -5 34 -129 74 -275 40 -146 83 -303 95 -350
13 -47 62 -229 110 -404 48 -176 89 -327 90 -335 2 -9 4 -16 5 -16 1 0 3 -7 5
-15 1 -8 19 -75 40 -149 20 -74 38 -142 40 -150 2 -9 29 -108 60 -221 82 -299
82 -298 105 -385 12 -44 33 -120 46 -170 14 -49 33 -121 44 -160 10 -38 42
-155 70 -260 29 -104 58 -215 66 -245 8 -30 22 -78 30 -106 8 -28 17 -60 19
-70 2 -11 18 -68 35 -129 17 -60 33 -117 34 -125 2 -8 30 -111 61 -227 l58
-213 2048 0 c1464 0 2049 3 2049 11 0 6 -18 65 -39 132 -22 67 -53 167 -70
222 -57 190 -243 820 -251 850 -4 17 -13 44 -18 60 -6 17 -22 68 -36 115 -13
47 -63 213 -109 370 -47 157 -87 294 -90 305 -3 11 -44 148 -91 305 -48 157
-97 321 -111 365 -13 44 -40 134 -60 200 -55 182 -146 484 -160 535 -7 25 -63
212 -125 415 -62 204 -116 384 -120 400 -5 17 -27 91 -49 165 -23 74 -50 167
-60 205 -11 39 -44 153 -74 255 -30 102 -57 194 -60 205 -2 11 -30 106 -61
210 -32 105 -59 197 -61 206 -2 9 -18 63 -35 120 -17 57 -33 112 -35 122 -2
10 -18 66 -36 125 -70 236 -140 473 -143 487 -2 6 -9 30 -16 55 -7 25 -15 51
-17 58 -2 6 -4 18 -6 25 -2 6 -10 32 -17 57 -7 25 -15 50 -16 55 -2 6 -25 87
-53 180 -27 94 -66 226 -86 295 -83 286 -279 952 -306 1045 -17 55 -39 129
-48 165 -10 36 -30 103 -44 150 -71 238 -109 367 -112 384 -3 11 -13 47 -24
80 -11 34 -47 156 -81 271 -34 116 -66 226 -73 245 -6 19 -12 41 -13 48 -1 8
-4 16 -6 18 -3 3 -81 -111 -178 -260 -8 -12 -27 -40 -41 -62 -14 -21 -88 -133
-164 -249 -76 -115 -226 -343 -333 -505 -108 -162 -252 -380 -320 -485 -69
-104 -177 -269 -241 -365 -64 -96 -118 -179 -121 -185 -3 -5 -89 -136 -191
-290 -176 -265 -329 -497 -637 -965 -75 -113 -218 -330 -318 -482 -101 -152
-234 -354 -297 -450 -62 -95 -194 -294 -292 -443 -98 -148 -227 -343 -286
-433 l-107 -163 -29 38 c-16 21 -72 101 -125 178 -52 77 -158 230 -234 340
-76 110 -152 221 -169 245 -16 25 -34 50 -38 55 -5 6 -83 118 -174 250 -91
132 -195 283 -231 335 -36 52 -79 115 -96 140 -17 25 -34 50 -39 55 -4 6 -167
242 -363 525 -195 283 -360 522 -367 531 -7 8 -16 23 -22 32 -11 18 -65 96
-184 267 -44 63 -150 216 -235 340 -86 124 -201 290 -256 370 -55 80 -105 152
-110 160 -9 14 -125 180 -319 460 -168 242 -257 372 -266 388 -5 9 -12 19 -15
22 -6 5 -339 486 -393 567 -16 24 -30 43 -31 43 -1 0 -14 -39 -29 -87z"/>
</g>
</svg>
